<svg id="a20acad7-d430-4c19-9695-410d425e9f55" data-name="圖層 2" xmlns="http://www.w3.org/2000/svg" viewBox="0 0 51.56 51.56"><title>CHENGUANG LOGO橘</title><path d="M29.76,35.23c-.3,0-.61.07-.91.12A3.44,3.44,0,0,1,29.76,35.23Z"/><path d="M50.48,29.26c0,.1,0,.21,0,.31s-.06.4-.1.6c0,0,0,0,0,0A25,25,0,1,1,25.77.78a24.82,24.82,0,0,1,10,2.11l.07,0c.25.11.5.22.75.35a3.75,3.75,0,0,1-1.94,7,4,4,0,0,1-1.46-.29l-.08,0a17.5,17.5,0,1,0-2.28,32.61,3.73,3.73,0,0,0-1.09-7.29h0a3.44,3.44,0,0,0-.91.12c-.25,0-.49.09-.74.15a10,10,0,1,1,6.06-15.14,10.86,10.86,0,0,0,9,5.17h3.56A3.72,3.72,0,0,1,50.48,29.26Z" style="fill:#ffc000"/></svg>